HIERARCHY
ROOT joint_Root
{
	OFFSET 0.0 0.0 0.0
	CHANNELS 6 Xposition Yposition Zposition Zrotation Xrotation Yrotation 
	JOINT Hips
	{
		OFFSET -17.1583 93.1646 452.98
		CHANNELS 6 Xposition Yposition Zposition Zrotation Xrotation Yrotation 
		JOINT Spine
		{
			OFFSET 15.7357 0.0 0.0
			CHANNELS 6 Xposition Yposition Zposition Zrotation Xrotation Yrotation 
			JOINT Chest
			{
				OFFSET 8.98455 -0.406207 0.0
				CHANNELS 6 Xposition Yposition Zposition Zrotation Xrotation Yrotation 
				JOINT Neck
				{
					OFFSET 16.3773 0.0 0.0
					CHANNELS 6 Xposition Yposition Zposition Zrotation Xrotation Yrotation 
					JOINT Head
					{
						OFFSET 6.45672 0.0 0.0
						CHANNELS 6 Xposition Yposition Zposition Zrotation Xrotation Yrotation 
						End Site
						{
							OFFSET 0.0 0.0 0.0
						}
					}
				}
				JOINT Shoulder_L
				{
					OFFSET 12.9942 -0.242716 4.98039
					CHANNELS 6 Xposition Yposition Zposition Zrotation Xrotation Yrotation 
					JOINT UpperArm_L
					{
						OFFSET 5.34809 0.0 0.0
						CHANNELS 6 Xposition Yposition Zposition Zrotation Xrotation Yrotation 
						JOINT LowerArm_L
						{
							OFFSET 24.3286 1.87007e-05 0.0
							CHANNELS 6 Xposition Yposition Zposition Zrotation Xrotation Yrotation 
							JOINT Hand_L
							{
								OFFSET 22.2916 0.0 0.0
								CHANNELS 6 Xposition Yposition Zposition Zrotation Xrotation Yrotation 
								End Site
								{
									OFFSET 0.0 0.0 0.0
								}
							}
						}
					}
				}
				JOINT Shoulder_R
				{
					OFFSET 12.9945 -0.242716 -4.98039
					CHANNELS 6 Xposition Yposition Zposition Zrotation Xrotation Yrotation 
					JOINT UpperArm_R
					{
						OFFSET -5.34813 0.0 0.0
						CHANNELS 6 Xposition Yposition Zposition Zrotation Xrotation Yrotation 
						JOINT LowerArm_R
						{
							OFFSET -24.3289 0.000322201 0.0
							CHANNELS 6 Xposition Yposition Zposition Zrotation Xrotation Yrotation 
							JOINT Hand_R
							{
								OFFSET -22.2915 -0.000108084 0.0
								CHANNELS 6 Xposition Yposition Zposition Zrotation Xrotation Yrotation 
								End Site
								{
									OFFSET 0.0 0.0 0.0
								}
							}
						}
					}
				}
			}
		}
		JOINT UpperLeg_L
		{
			OFFSET -2.19248 -6.46944 0.0
			CHANNELS 6 Xposition Yposition Zposition Zrotation Xrotation Yrotation 
			JOINT LowerLeg_L
			{
				OFFSET 39.0811 0.0 -1.23785e-05
				CHANNELS 6 Xposition Yposition Zposition Zrotation Xrotation Yrotation 
				JOINT Foot_L
				{
					OFFSET 40.9854 0.0 -1.26872e-05
					CHANNELS 6 Xposition Yposition Zposition Zrotation Xrotation Yrotation 
					JOINT Toes_L
					{
						OFFSET 11.7543 0.0 0.0
						CHANNELS 6 Xposition Yposition Zposition Zrotation Xrotation Yrotation 
						End Site
						{
							OFFSET 0.0 0.0 0.0
						}
					}
				}
			}
		}
		JOINT UpperLeg_R
		{
			OFFSET -2.19251 6.46944 0.0
			CHANNELS 6 Xposition Yposition Zposition Zrotation Xrotation Yrotation 
			JOINT LowerLeg_R
			{
				OFFSET -39.0811 -0.00228153 -0.0401928
				CHANNELS 6 Xposition Yposition Zposition Zrotation Xrotation Yrotation 
				JOINT Foot_R
				{
					OFFSET -40.9854 0.0 0.0
					CHANNELS 6 Xposition Yposition Zposition Zrotation Xrotation Yrotation 
					JOINT Toes_R
					{
						OFFSET -11.7543 0.0 0.0
						CHANNELS 6 Xposition Yposition Zposition Zrotation Xrotation Yrotation 
						End Site
						{
							OFFSET 0.0 0.0 0.0
						}
					}
				}
			}
		}
	}
}
MOTION
Frames:	4
Frame Time:	0.0333333
0.000000 0.000000 0.000000 0.000000 0.000000 -0.000000 -3.099530 91.799800 0.904887 83.784600 -0.343719 3.934520 15.735700 0.000005 -0.000001 77.028300 87.245900 -74.958200 8.984550 -0.406207 -0.000000 -2.369770 -1.419020 4.110650 16.377300 -0.000001 -0.000001 9.297200 -1.266230 -9.726360 6.456720 -0.000001 -0.000000 1.932830 -5.896220 -18.602000 12.994200 -0.242716 4.980390 -92.732600 7.182730 -69.106600 5.348090 -0.000007 -0.000001 -72.984300 11.594400 -3.002600 24.328600 0.000019 0.000005 48.516200 -44.909800 -121.975000 22.291600 -0.000001 0.000005 46.327500 4.867220 10.025300 12.994500 -0.242716 -4.980390 88.344800 4.875690 -71.223300 -5.348130 -0.000001 -0.000004 -71.985600 30.229100 -3.137600 -24.328900 0.000322 -0.000009 2.118350 7.283250 -16.273300 -22.291500 -0.000108 -0.000004 1.295050 5.220080 2.210820 -2.192480 -6.469440 -0.000000 -171.735000 5.021280 -2.766590 39.081100 -0.000007 -0.000012 0.358328 -0.670709 28.114300 40.985400 -0.000006 -0.000013 -0.001693 7.530820 -77.397000 11.754300 -0.000000 0.000003 -0.000224 0.171314 -9.628220 -2.192510 6.469440 -0.000001 -170.007000 5.679490 -175.946000 -39.081100 -0.002282 -0.040193 0.104300 -0.363441 15.526400 -40.985400 0.000008 0.000006 3.953340 0.489009 -71.514100 -11.754300 -0.000006 -0.000006 -0.011036 0.278886 -5.240790
0.000000 0.000000 0.000000 0.000000 0.000000 -0.000000 -3.011890 91.813700 0.880872 83.788400 -0.320230 3.903700 15.735700 0.000005 -0.000001 76.933900 87.253800 -74.842800 8.984550 -0.406207 -0.000000 -2.386760 -1.426450 4.152380 16.377300 -0.000001 -0.000001 9.310670 -1.272780 -9.696330 6.456720 -0.000001 -0.000000 1.925430 -5.904200 -18.625700 12.994200 -0.242716 4.980390 -92.731900 7.184220 -69.115400 5.348090 -0.000007 -0.000001 -72.939300 11.577500 -3.011050 24.328600 0.000019 0.000005 48.335800 -44.833300 -122.104000 22.291600 -0.000001 0.000005 46.198700 4.874010 9.892320 12.994500 -0.242716 -4.980390 88.347700 4.868070 -71.226300 -5.348130 -0.000001 -0.000004 -71.995200 30.255500 -3.128030 -24.328900 0.000322 -0.000009 2.132180 7.289670 -16.360300 -22.291500 -0.000108 -0.000004 1.261200 5.219850 2.216570 -2.192480 -6.469440 -0.000000 -171.793000 4.989020 -2.823180 39.081100 -0.000007 -0.000012 0.357640 -0.669768 28.101900 40.985400 -0.000006 -0.000013 -0.047391 7.548490 -77.295900 11.754300 -0.000000 0.000003 -0.000090 0.169121 -9.717260 -2.192510 6.469440 -0.000001 -170.045000 5.519980 -175.987000 -39.081100 -0.002282 -0.040193 0.102776 -0.358610 15.499400 -40.985400 0.000008 0.000006 3.873810 0.363875 -71.441400 -11.754300 -0.000006 -0.000006 -0.010671 0.276250 -5.348670
0.000000 0.000000 0.000000 0.000000 0.000000 -0.000000 -2.913800 91.818000 0.866318 83.820400 -0.306157 3.909060 15.735700 0.000005 -0.000001 76.957300 87.252000 -74.855300 8.984550 -0.406207 -0.000000 -2.382470 -1.425990 4.174260 16.377300 -0.000001 -0.000001 9.339820 -1.295380 -9.656600 6.456720 -0.000001 -0.000000 1.915540 -5.931340 -18.618500 12.994200 -0.242716 4.980390 -92.729000 7.175840 -69.114100 5.348090 -0.000007 -0.000001 -72.908400 11.619000 -3.019190 24.328600 0.000019 0.000005 48.356200 -44.837300 -122.087000 22.291600 -0.000001 0.000005 46.236300 4.871610 9.939350 12.994500 -0.242716 -4.980390 88.349200 4.861350 -71.217600 -5.348130 -0.000001 -0.000004 -71.985600 30.280600 -3.139980 -24.328900 0.000322 -0.000009 2.103520 7.175910 -16.393000 -22.291500 -0.000108 -0.000004 1.288770 5.222000 2.161540 -2.192480 -6.469440 -0.000000 -171.911000 5.038350 -2.813810 39.081100 -0.000007 -0.000012 0.358911 -0.672710 28.082000 40.985400 -0.000006 -0.000013 0.087041 7.463200 -77.320300 11.754300 -0.000000 0.000003 -0.000221 0.171271 -9.629960 -2.192510 6.469440 -0.000001 -170.140000 5.538860 -176.017000 -39.081100 -0.002282 -0.040193 0.104710 -0.364254 15.553300 -40.985400 0.000008 0.000006 3.888120 0.379464 -71.471800 -11.754300 -0.000006 -0.000006 -0.010524 0.275182 -5.392400
0.000000 0.000000 0.000000 0.000000 0.000000 -0.000000 -2.837010 91.831700 0.844049 83.807800 -0.309733 3.907430 15.735700 0.000005 -0.000001 76.806800 87.251100 -74.679000 8.984550 -0.406207 -0.000000 -2.383340 -1.442740 4.225490 16.377300 -0.000001 -0.000001 9.352540 -1.329190 -9.623230 6.456720 -0.000001 -0.000000 1.907690 -5.966910 -18.565500 12.994200 -0.242716 4.980390 -92.725200 7.171160 -69.128000 5.348090 -0.000007 -0.000001 -72.899800 11.558800 -2.979760 24.328600 0.000019 0.000005 48.499300 -44.892900 -121.982000 22.291600 -0.000001 0.000005 46.284100 4.865580 10.056200 12.994500 -0.242716 -4.980390 88.362800 4.829780 -71.248600 -5.348130 -0.000001 -0.000004 -71.977500 30.265100 -3.172690 -24.328900 0.000322 -0.000009 2.136590 7.288700 -16.394400 -22.291500 -0.000108 -0.000004 1.210800 5.221680 2.169820 -2.192480 -6.469440 -0.000000 -171.953000 5.028330 -2.824490 39.081100 -0.000007 -0.000012 0.355366 -0.666761 28.057200 40.985400 -0.000006 -0.000013 0.098806 7.436350 -77.251400 11.754300 -0.000000 0.000003 -0.000206 0.171030 -9.639760 -2.192510 6.469440 -0.000001 -170.187000 5.489090 -176.030000 -39.081100 -0.002282 -0.040193 0.102315 -0.355916 15.542200 -40.985400 0.000008 0.000006 3.747530 0.383739 -71.433900 -11.754300 -0.000006 -0.000006 -0.010568 0.275505 -5.379180
